<?xml version="1.0" encoding="utf-8"?>
<!-- Generator: Adobe Illustrator 19.0.0, SVG Export Plug-In . SVG Version: 6.00 Build 0)  -->
<svg version="1.1" id="Layer_1" xmlns="http://www.w3.org/2000/svg" xmlns:xlink="http://www.w3.org/1999/xlink" x="0px" y="0px"
	 viewBox="0 0 456.4 311.3" style="enable-background:new 0 0 456.4 311.3;" xml:space="preserve">
<style type="text/css">
	.st0{fill:#FFFFFF;}
</style>
<path id="XMLID_1_" class="st0" d="M302.3,190c14-15.9,36.3-15.3,49.5,1.3l86.5,109.5c13.2,16.6,20.9,13.2,17.2-7.7l-21.6-122.5
	c-3.7-20.9-14.8-53.3-24.8-72.1c0,0-52.1-98.4-180.9-98.4C99.4,0,47.3,98.4,47.3,98.4c-9.9,18.8-21.1,51.2-24.8,72.1L0.9,293
	c-3.7,20.9,4.1,24.4,17.2,7.7l86.5-109.5c13.2-16.6,35.4-17.2,49.5-1.3l48.5,55c14,15.9,37,15.9,51.1,0L302.3,190z"/>
</svg>
